# Blender 4.4.3
# www.blender.org
mtllib floor.mtl
g Plane_Mesh
v -5.000000 -0.000000 -5.000000
v 5.000000 -0.000000 -5.000000
v -5.000000 0.000000 5.000000
v 5.000000 0.000000 5.000000
v -5.000000 -0.056696 -5.000000
v 5.000000 -0.056696 -5.000000
v -5.000000 -0.056695 5.000000
v 5.000000 -0.056695 5.000000
vn 0.5773 0.5774 -0.5773
vn -0.5774 0.5774 -0.5774
vn -0.5773 0.5774 0.5773
vn 0.5773 0.5774 0.5774
vn 0.5773 -0.5774 -0.5773
vn -0.5773 -0.5774 0.5773
vn -0.5774 -0.5774 -0.5773
vn 0.5774 -0.5774 0.5774
vt 3.000000 -2.000000
vt -2.000000 -2.000000
vt -2.000000 3.000000
vt 3.000000 3.000000
s 1
g off
g Plane_wood
usemtl wood
f 2/1/1 1/2/2 3/3/3
f 2/1/1 3/3/3 4/4/4
f 6/1/5 7/3/6 5/2/7
f 6/1/5 8/4/8 7/3/6
f 4/4/4 6/1/5 2/1/1
f 3/3/3 8/4/8 4/4/4
f 1/2/2 7/3/6 3/3/3
f 2/1/1 5/2/7 1/2/2
f 4/4/4 8/4/8 6/1/5
f 3/3/3 7/3/6 8/4/8
f 1/2/2 5/2/7 7/3/6
f 2/1/1 6/1/5 5/2/7
